<svg xmlns="http://www.w3.org/2000/svg" viewBox="0 0 151.5 151.5"><defs><style>.cls-2{fill:#e63209}</style></defs><g id="Ebene_2" data-name="Ebene 2"><g id="Ebene_1-2" data-name="Ebene 1"><circle cx="75.75" cy="75.75" r="75" style="fill:none;stroke:#e63209;stroke-miterlimit:10;stroke-width:1.5px"/><path class="cls-2" d="M37.85 37.71h1.64l2.93 11.4c.33 1.25.78 3.33.78 3.33s.47-2 .8-3.24l3.1-11.49h1.7L52 49.18c.31 1.21.78 3.26.78 3.26h.05s.47-2.08.78-3.33l3-11.4h1.49l-4.59 16.91H51.9L48.69 42.3c-.31-1.07-.67-2.75-.67-2.75s-.36 1.66-.64 2.75L44 54.62h-1.65zM60.37 37.71h1.46v2.08h-1.46zm0 4.68h1.46v12.23h-1.46zM65 42.39h1.46v2.27h.05a4.14 4.14 0 0 1 3.74-2.36 1.25 1.25 0 0 1 .4.05v1.44a3.55 3.55 0 0 0-2.6.59 4 4 0 0 0-1.59 3.29v6.95H65zM38.8 61.77h1.47v1.84a4.21 4.21 0 0 1 3.73-2.1 3.25 3.25 0 0 1 3.26 2.22h.05a4.38 4.38 0 0 1 3.93-2.22A3.52 3.52 0 0 1 55 65.32V74h-1.49v-8.57a2.4 2.4 0 0 0-2.58-2.67 3.25 3.25 0 0 0-3.31 3.45V74h-1.46v-8.57a2.35 2.35 0 0 0-2.46-2.67 3.48 3.48 0 0 0-3.43 3.45V74H38.8zM57.36 70.87c0-2.91 2.28-3.5 5-3.83 2.41-.28 3.29-.42 3.29-1.65v-.24c0-1.66-1-2.46-2.93-2.46-2.18 0-3.31.9-3.43 2.72h-1.41c.17-2.36 1.73-3.9 4.88-3.9 2.67 0 4.33 1.11 4.33 3.78v6.65c0 .73.28 1 .8 1.06a2.34 2.34 0 0 0 .54-.09h.08V74a2.35 2.35 0 0 1-1 .19 1.63 1.63 0 0 1-1.8-1.73v-.26h-.07a4.92 4.92 0 0 1-4.28 2.11c-2.27-.03-4-1.17-4-3.44zm8.35-1.3v-2.2a10.11 10.11 0 0 1-3.17.81c-2 .28-3.64.59-3.64 2.69 0 1.71 1.28 2.23 2.72 2.23 2.67 0 4.09-1.85 4.09-3.53zM69.8 67.89c0-3.64 2-6.41 5.59-6.41a4.56 4.56 0 0 1 4.91 4h-1.46a3.18 3.18 0 0 0-3.45-2.75c-2.82 0-4.07 2.35-4.07 5.18s1.27 5.16 4 5.16A3.45 3.45 0 0 0 79 69.79h1.4a4.7 4.7 0 0 1-5 4.51c-3.61 0-5.6-2.76-5.6-6.41zM82.83 57.08h1.47v6.56a4.7 4.7 0 0 1 4.09-2.13 3.59 3.59 0 0 1 3.9 3.81V74h-1.41v-8.54c0-1.85-1.07-2.7-2.8-2.7a3.59 3.59 0 0 0-3.78 3.48V74h-1.47zM94.78 67.89c0-3.66 2.2-6.41 5.58-6.41 3.92 0 5.27 3.24 5.25 6.67h-9.32c.07 2.75 1.4 4.9 4.19 4.9a3.42 3.42 0 0 0 3.57-2.74h1.42a4.77 4.77 0 0 1-5 4c-3.66-.01-5.69-2.75-5.69-6.42zm9.29-.89c-.07-2.42-1.2-4.31-3.71-4.31s-3.79 1.87-4 4.31zM108.14 61.77h1.46v1.87h.05a4.7 4.7 0 0 1 4.09-2.13 3.6 3.6 0 0 1 3.91 3.81V74h-1.47v-8.54a2.46 2.46 0 0 0-2.79-2.7 3.6 3.6 0 0 0-3.79 3.48V74h-1.46zM38.16 87.27c0-3.67 2.2-6.41 5.58-6.41 3.93 0 5.28 3.24 5.25 6.67h-9.31c.07 2.74 1.39 4.9 4.18 4.9a3.4 3.4 0 0 0 3.57-2.75h1.42a4.77 4.77 0 0 1-5 4c-3.65 0-5.69-2.75-5.69-6.41zm9.3-.9c-.07-2.41-1.21-4.3-3.72-4.3s-3.78 1.86-4 4.3zM50.74 89.56h1.49c.22 2.06 1.64 2.89 3.6 2.89s3.1-1 3.1-2.37-.76-1.79-3.27-2.36-4.47-1.16-4.47-3.53c0-2 1.75-3.31 4.26-3.31 2.91 0 4.26 1.47 4.54 3.62h-1.47c-.16-1.58-1.25-2.41-3.07-2.41s-2.79.9-2.79 2c0 1.4 1.16 1.73 3.5 2.27s4.23 1.14 4.23 3.67c0 2.18-1.75 3.64-4.59 3.64-3.26.03-4.92-1.74-5.06-4.11zM38.2 109.51h2c0 1.64 1.25 2.48 3 2.48s2.82-.58 2.82-1.76c0-.82-.56-1.51-1.88-1.75l-2.42-.48a3.32 3.32 0 0 1-3-3.44c0-2 1.73-3.51 4.45-3.51s4.66 1.51 4.66 4h-2c-.07-1.57-1.16-2.26-2.69-2.26s-2.51.6-2.51 1.8c0 1 .7 1.49 2 1.73l1.92.36c2.33.44 3.49 1.45 3.49 3.56s-2.21 3.56-4.86 3.56c-2.86-.01-4.9-1.6-4.98-4.29zM50.78 107.44c0-3.82 1.9-6.37 5.56-6.37 3.29 0 4.88 2 5 4.42h-2a2.74 2.74 0 0 0-3-2.62c-2.53 0-3.51 2-3.51 4.57s1 4.57 3.51 4.57a2.75 2.75 0 0 0 3.08-2.57h2c-.24 2.6-1.88 4.35-5.08 4.35-3.66 0-5.56-2.48-5.56-6.35zM64 95.78h2v7.43h.09a3.94 3.94 0 0 1 3.75-2.14c2.72 0 4.36 1.71 4.36 4.52v8h-2v-7.69c0-1.92-.94-3-2.89-3s-3.29 1.49-3.29 4v6.73H64zM76.5 107.44c0-3.53 1.75-6.37 5.55-6.37s5.56 2.84 5.56 6.37-1.71 6.35-5.56 6.35-5.55-2.79-5.55-6.35zm9.06 0c0-2.64-1-4.57-3.51-4.57s-3.51 1.95-3.51 4.57 1 4.55 3.51 4.55 3.51-1.9 3.51-4.55zm-6.73-11.18h2.48v2.48h-2.48zm4.18 0h2.48v2.48H83zM90 101.29h1.76l.17 1.92H92a4 4 0 0 1 3.8-2.14c2.72 0 4.31 1.71 4.31 4.52v8h-2v-7.69c0-1.92-.89-3-2.84-3S92 104.32 92 106.79v6.78h-2z"/></g></g></svg>