<svg xmlns="http://www.w3.org/2000/svg" viewBox="0 0 151.5 151.5"><defs><style>.cls-1{fill:none;stroke:#e63209;stroke-miterlimit:10;stroke-width:1.5px;}.cls-2{fill:#e63209;}</style></defs><g id="Ebene_2" data-name="Ebene 2"><g id="Ebene_1-2" data-name="Ebene 1"><circle class="cls-1" cx="75.75" cy="75.75" r="75"/><path class="cls-2" d="M37.85,37.71h1.64l2.93,11.4c.33,1.25.78,3.33.78,3.33h0s.47-2,.8-3.24l3.1-11.49h1.7L52,49.18c.31,1.21.78,3.26.78,3.26h.05s.47-2.08.78-3.33l3-11.4H58.1L53.51,54.62H51.9L48.69,42.3c-.31-1.07-.67-2.75-.67-2.75h0s-.36,1.66-.64,2.75L44,54.62H42.35Z"/><path class="cls-2" d="M60.37,37.71h1.46v2.08H60.37Zm0,4.68h1.46V54.62H60.37Z"/><path class="cls-2" d="M65,42.39h1.46v2.27h.05a4.14,4.14,0,0,1,3.74-2.36,1.25,1.25,0,0,1,.4.05v1.44a3.55,3.55,0,0,0-2.6.59,4,4,0,0,0-1.59,3.29v6.95H65Z"/><path class="cls-2" d="M38.8,61.77h1.47v1.84h0A4.21,4.21,0,0,1,44,61.51a3.25,3.25,0,0,1,3.26,2.22h.05a4.38,4.38,0,0,1,3.93-2.22A3.52,3.52,0,0,1,55,65.32V74H53.51V65.43a2.4,2.4,0,0,0-2.58-2.67,3.25,3.25,0,0,0-3.31,3.45V74H46.16V65.43a2.35,2.35,0,0,0-2.46-2.67,3.48,3.48,0,0,0-3.43,3.45V74H38.8Z"/><path class="cls-2" d="M57.36,70.87c0-2.91,2.28-3.5,5-3.83,2.41-.28,3.29-.42,3.29-1.65v-.24c0-1.66-1-2.46-2.93-2.46-2.18,0-3.31.9-3.43,2.72H57.88c.17-2.36,1.73-3.9,4.88-3.9,2.67,0,4.33,1.11,4.33,3.78v6.65c0,.73.28,1,.8,1.06a2.34,2.34,0,0,0,.54-.09h.08V74a2.35,2.35,0,0,1-1,.19,1.63,1.63,0,0,1-1.8-1.73v-.26h-.07a4.92,4.92,0,0,1-4.28,2.11C59.09,74.28,57.36,73.14,57.36,70.87Zm8.35-1.3v-2.2a10.11,10.11,0,0,1-3.17.81c-2,.28-3.64.59-3.64,2.69,0,1.71,1.28,2.23,2.72,2.23C64.29,73.1,65.71,71.25,65.71,69.57Z"/><path class="cls-2" d="M69.8,67.89c0-3.64,2-6.41,5.59-6.41a4.56,4.56,0,0,1,4.91,4H78.84a3.18,3.18,0,0,0-3.45-2.75c-2.82,0-4.07,2.35-4.07,5.18s1.27,5.16,4,5.16A3.45,3.45,0,0,0,79,69.79h1.4a4.7,4.7,0,0,1-5,4.51C71.79,74.3,69.8,71.54,69.8,67.89Z"/><path class="cls-2" d="M82.83,57.08H84.3v6.56h0a4.7,4.7,0,0,1,4.09-2.13,3.59,3.59,0,0,1,3.9,3.81V74H90.88V65.46c0-1.85-1.07-2.7-2.8-2.7a3.59,3.59,0,0,0-3.78,3.48V74H82.83Z"/><path class="cls-2" d="M94.78,67.89c0-3.66,2.2-6.41,5.58-6.41,3.92,0,5.27,3.24,5.25,6.67H96.29c.07,2.75,1.4,4.9,4.19,4.9a3.42,3.42,0,0,0,3.57-2.74h1.42a4.77,4.77,0,0,1-5,4C96.81,74.3,94.78,71.56,94.78,67.89Zm9.29-.89c-.07-2.42-1.2-4.31-3.71-4.31s-3.79,1.87-4,4.31Z"/><path class="cls-2" d="M108.14,61.77h1.46v1.87h.05a4.7,4.7,0,0,1,4.09-2.13,3.6,3.6,0,0,1,3.91,3.81V74h-1.47V65.46a2.46,2.46,0,0,0-2.79-2.7,3.6,3.6,0,0,0-3.79,3.48V74h-1.46Z"/><path class="cls-2" d="M38.16,87.27c0-3.67,2.2-6.41,5.58-6.41,3.93,0,5.28,3.24,5.25,6.67H39.68c.07,2.74,1.39,4.9,4.18,4.9a3.4,3.4,0,0,0,3.57-2.75h1.42a4.77,4.77,0,0,1-5,4C40.2,93.68,38.16,90.93,38.16,87.27Zm9.3-.9c-.07-2.41-1.21-4.3-3.72-4.3s-3.78,1.86-4,4.3Z"/><path class="cls-2" d="M50.74,89.56h1.49c.22,2.06,1.64,2.89,3.6,2.89s3.1-1,3.1-2.37-.76-1.79-3.27-2.36-4.47-1.16-4.47-3.53c0-2,1.75-3.31,4.26-3.31,2.91,0,4.26,1.47,4.54,3.62H58.52c-.16-1.58-1.25-2.41-3.07-2.41s-2.79.9-2.79,2c0,1.4,1.16,1.73,3.5,2.27s4.23,1.14,4.23,3.67c0,2.18-1.75,3.64-4.59,3.64C52.54,93.7,50.88,91.93,50.74,89.56Z"/><path class="cls-2" d="M38.2,109.51h2c0,1.64,1.25,2.48,3,2.48s2.82-.58,2.82-1.76c0-.82-.56-1.51-1.88-1.75L41.72,108a3.32,3.32,0,0,1-3-3.44c0-2,1.73-3.51,4.45-3.51s4.66,1.51,4.66,4h-2c-.07-1.57-1.16-2.26-2.69-2.26s-2.51.6-2.51,1.8c0,1,.7,1.49,2,1.73l1.92.36c2.33.44,3.49,1.45,3.49,3.56s-2.21,3.56-4.86,3.56C40.32,113.79,38.28,112.2,38.2,109.51Z"/><path class="cls-2" d="M50.78,107.44c0-3.82,1.9-6.37,5.56-6.37,3.29,0,4.88,2,5,4.42h-2a2.74,2.74,0,0,0-3-2.62c-2.53,0-3.51,2-3.51,4.57s1,4.57,3.51,4.57a2.75,2.75,0,0,0,3.08-2.57h2c-.24,2.6-1.88,4.35-5.08,4.35C52.68,113.79,50.78,111.31,50.78,107.44Z"/><path class="cls-2" d="M64,95.78h2v7.43h.09a3.94,3.94,0,0,1,3.75-2.14c2.72,0,4.36,1.71,4.36,4.52v8h-2V105.9c0-1.92-.94-3-2.89-3s-3.29,1.49-3.29,4v6.73H64Z"/><path class="cls-2" d="M76.5,107.44c0-3.53,1.75-6.37,5.55-6.37s5.56,2.84,5.56,6.37-1.71,6.35-5.56,6.35S76.5,111,76.5,107.44Zm9.06,0c0-2.64-1-4.57-3.51-4.57s-3.51,1.95-3.51,4.57,1,4.55,3.51,4.55S85.56,110.09,85.56,107.44ZM78.83,96.26h2.48v2.48H78.83Zm4.18,0h2.48v2.48H83Z"/><path class="cls-2" d="M90,101.29h1.76l.17,1.92H92a4,4,0,0,1,3.8-2.14c2.72,0,4.31,1.71,4.31,4.52v8h-2V105.9c0-1.92-.89-3-2.84-3S92,104.32,92,106.79v6.78H90Z"/></g></g></svg>