<svg xmlns="http://www.w3.org/2000/svg" viewBox="0 0 151.5 151.5"><defs><style>.cls-2{fill:#e63209}</style></defs><g id="Ebene_2" data-name="Ebene 2"><g id="Ebene_1-2" data-name="Ebene 1"><circle cx="75.75" cy="75.75" r="75" style="fill:none;stroke:#e63209;stroke-miterlimit:10;stroke-width:1.5px"/><path class="cls-2" d="M40.8 48.2h14.66v2.73H43.77v7.49h10.64v2.74H43.77v8.27h11.69v2.71H40.8zM58.24 55v-.34h3l5.37 14.13h.14l5.16-14.13h3V55l-6.83 17.14h-3zM77.83 67c0-2.94 2.09-5.47 7.22-5.47h4.31v-1.09c0-1.95-1.2-3.62-4-3.62-2.56 0-3.83 1.43-3.86 3.11h-2.81c0-3.35 2.8-5.58 6.63-5.58 4.48 0 6.84 2.71 6.84 6v11.79h-2.43l-.2-2.47h-.14a6 6 0 0 1-5.47 2.77c-3.8 0-6.09-2.36-6.09-5.44zm11.53-1.67v-1.47h-4.31c-2.84 0-4.31 1.1-4.31 3.15 0 1.74 1.16 3 3.69 3a4.69 4.69 0 0 0 4.93-4.64zM40.8 78.78h2.25v10.4h13.62v-10.4h2.25v24h-2.25V91.06H43.05v11.77H40.8zM62.92 94.15c0-5.21 3.13-9.11 7.94-9.11 5.58 0 7.5 4.61 7.46 9.48H65.07c.1 3.9 2 7 6 7a4.83 4.83 0 0 0 5.07-3.9h2a6.79 6.79 0 0 1-7.14 5.65c-5.19 0-8.08-3.9-8.08-9.12zm13.22-1.27c-.1-3.44-1.72-6.13-5.28-6.13s-5.38 2.66-5.75 6.13zM80.81 97.42h2.12c.3 2.92 2.32 4.1 5.11 4.1s4.41-1.35 4.41-3.37-1.08-2.55-4.64-3.36-6.36-1.65-6.36-5c0-2.89 2.49-4.71 6-4.71 4.14 0 6.06 2.09 6.46 5.15h-2.04c-.23-2.25-1.78-3.43-4.37-3.43s-4 1.28-4 2.89c0 2 1.65 2.46 5 3.23 3.5.74 6 1.61 6 5.21 0 3.1-2.49 5.18-6.52 5.18-4.61-.01-6.98-2.53-7.17-5.89zM97 97.42h2.1c.3 2.92 2.32 4.1 5.11 4.1s4.41-1.35 4.41-3.37-1.08-2.55-4.64-3.36-6.36-1.65-6.36-5c0-2.89 2.49-4.71 6.06-4.71 4.13 0 6 2.09 6.45 5.15h-2.08c-.24-2.25-1.78-3.43-4.37-3.43s-4 1.28-4 2.89c0 2 1.65 2.46 5 3.23 3.5.74 6 1.61 6 5.21 0 3.1-2.48 5.18-6.52 5.18-4.62-.01-6.98-2.53-7.16-5.89z"/></g></g></svg>