<svg xmlns="http://www.w3.org/2000/svg" viewBox="0 0 61.2 61.2"><g data-name="Ebene 2"><g data-name="Ebene 1"><path d="M35 41.5h-8.84A6.19 6.19 0 0 1 20 35.33v-9.46a6.19 6.19 0 0 1 6.17-6.17H35a6.19 6.19 0 0 1 6.17 6.17v9.46A6.19 6.19 0 0 1 35 41.5zm0-1.63a4.58 4.58 0 0 0 4.54-4.54v-9.46A4.58 4.58 0 0 0 35 21.33h-8.84a4.58 4.58 0 0 0-4.54 4.54v9.46a4.58 4.58 0 0 0 4.54 4.54z" style="fill:#e63209"/><path d="M36.47 30.52a5.84 5.84 0 1 1-5.84-5.85 5.84 5.84 0 0 1 5.84 5.85zM30.6 26.7a3.83 3.83 0 1 0 3.83 3.82 3.82 3.82 0 0 0-3.83-3.82z" style="fill:#e63209"/><circle cx="36.57" cy="24.58" r="1.38" style="fill:#e63209"/><circle cx="30.6" cy="30.6" r="30" style="fill:none;stroke:#e63209;stroke-miterlimit:10;stroke-width:1.2px"/></g></g></svg>