<svg xmlns="http://www.w3.org/2000/svg" viewBox="0 0 61.2 61.2"><g data-name="Ebene 2"><g data-name="Ebene 1"><circle cx="30.6" cy="30.6" r="30" style="fill:none;stroke:#e63209;stroke-miterlimit:10;stroke-width:1.2px"/><path d="M25.33 40.25a.7.7 0 0 1-.7.7h-3a.7.7 0 0 1-.7-.7V27.78a.7.7 0 0 1 .7-.7h3a.7.7 0 0 1 .7.7zM23.14 25.9A2.83 2.83 0 1 1 26 23.08a2.82 2.82 0 0 1-2.86 2.82zm17.74 14.41a.64.64 0 0 1-.64.64h-3.19a.65.65 0 0 1-.65-.64v-5.85c0-.88.26-3.83-2.28-3.83-2 0-2.36 2-2.44 2.93v6.75A.65.65 0 0 1 31 41h-3.06a.64.64 0 0 1-.64-.64V27.72a.64.64 0 0 1 .64-.64H31a.65.65 0 0 1 .65.64v1.09c.73-1.1 1.81-1.94 4.12-1.94 5.11 0 5.08 4.78 5.08 7.4v6z" style="fill:#e63209"/></g></g></svg>