<svg xmlns="http://www.w3.org/2000/svg" viewBox="0 0 365.28 114"><g data-name="Ebene 2"><g data-name="Ebene 1"><path d="M141.18 45.56h2.14v22.86h-2.14zM148.44 51.89h2v2.53h.06a6.37 6.37 0 0 1 5.5-2.88c3.07 0 5.28 1.82 5.28 5.15v11.73h-2V56.88c0-2.49-1.43-3.64-3.77-3.64a4.85 4.85 0 0 0-5.11 4.7v10.48h-2zM165.76 51.89h2v2.53h.07a6.37 6.37 0 0 1 5.53-2.88c3.07 0 5.27 1.82 5.27 5.15v11.73h-2V56.88c0-2.49-1.44-3.64-3.77-3.64a4.85 4.85 0 0 0-5.12 4.7v10.48h-2zM182.23 60.17c0-5 3-8.66 7.54-8.66 5.31 0 7.13 4.38 7.1 9h-12.6c.1 3.7 1.89 6.61 5.66 6.61a4.61 4.61 0 0 0 4.83-3.71h1.92a6.46 6.46 0 0 1-6.75 5.41c-4.93.02-7.7-3.69-7.7-8.65zM194.79 59c-.1-3.26-1.63-5.82-5-5.82s-5.11 2.53-5.47 5.82zM200.61 51.89h2v2.53h.07a6.34 6.34 0 0 1 5.53-2.88c3.07 0 5.27 1.82 5.27 5.15v11.73h-2V56.88c0-2.49-1.44-3.64-3.77-3.64a4.85 4.85 0 0 0-5.12 4.7v10.48h-2zM217 64.2c0-3.93 3.07-4.73 6.81-5.18 3.26-.38 4.44-.57 4.44-2.23v-.32c0-2.24-1.4-3.33-4-3.33-2.94 0-4.48 1.22-4.64 3.68h-1.95c.23-3.2 2.34-5.28 6.59-5.28 3.61 0 5.85 1.5 5.85 5.12v9c0 1 .38 1.41 1.09 1.44a3.22 3.22 0 0 0 .81-.1h.1v1.44a3.19 3.19 0 0 1-1.35.26 2.22 2.22 0 0 1-2.43-2.34V66h-.09a6.66 6.66 0 0 1-5.79 2.85c-3.1-.04-5.44-1.58-5.44-4.65zm11.28-1.76v-3a13.7 13.7 0 0 1-4.28 1.12c-2.78.38-4.92.8-4.92 3.64 0 2.3 1.72 3 3.67 3 3.63.01 5.54-2.49 5.54-4.76zM235.17 51.89h2V55h.06a5.6 5.6 0 0 1 5.06-3.19 2.23 2.23 0 0 1 .54.06v2a4.8 4.8 0 0 0-3.52.8 5.4 5.4 0 0 0-2.16 4.33v9.4h-2zM244.63 60.17c0-4.92 2.75-8.66 7.55-8.66 3.64 0 6.1 2 6.65 5.37h-2a4.28 4.28 0 0 0-4.66-3.71c-3.81 0-5.5 3.17-5.5 7s1.72 7 5.46 7a4.66 4.66 0 0 0 4.9-4.41h1.88a6.35 6.35 0 0 1-6.78 6.11c-4.81-.03-7.5-3.77-7.5-8.7zM262.57 45.56h2v8.86h.06a6.37 6.37 0 0 1 5.53-2.88c3.07 0 5.28 1.82 5.28 5.15v11.73h-2V56.88c0-2.49-1.44-3.64-3.78-3.64a4.85 4.85 0 0 0-5.11 4.7v10.48h-2zM280 45.56h2v2.82h-2zm0 6.33h2v16.53h-2zM288 65.58V53.52h-2.49v-1.63H288v-5.08h2v5.08h3v1.63h-3.07v11.74c0 1.18.54 1.56 1.6 1.56a3.77 3.77 0 0 0 1.31-.25h.1v1.69a5.41 5.41 0 0 1-1.83.29c-1.88 0-3.11-.86-3.11-2.97zM295.69 60.17c0-5 3-8.66 7.54-8.66 5.31 0 7.13 4.38 7.1 9h-12.6c.1 3.7 1.89 6.61 5.66 6.61a4.61 4.61 0 0 0 4.83-3.71h1.92a6.46 6.46 0 0 1-6.75 5.41c-4.95.02-7.7-3.69-7.7-8.65zM308.25 59c-.1-3.26-1.63-5.82-5-5.82s-5.11 2.53-5.47 5.82zM314.07 45.56h2v14.29l8.22-8h2.52l-6.33 6 7.1 10.55h-2.3l-6.17-9.27-3 2.91v6.36h-2zM331.62 65.58V53.52h-2.49v-1.63h2.49v-5.08h2v5.08h3.07v1.63h-3.09v11.74c0 1.18.55 1.56 1.6 1.56a3.77 3.77 0 0 0 1.31-.25h.1v1.69a5.41 5.41 0 0 1-1.83.29c-1.88 0-3.16-.86-3.16-2.97zM340.41 63.56V51.89h2v11.54c0 2.5 1.51 3.71 3.9 3.71a4.7 4.7 0 0 0 4.8-4.92V51.89h2v16.53h-2V66H351a5.86 5.86 0 0 1-5.17 2.82c-3.18-.01-5.42-1.93-5.42-5.26zM357.64 51.89h2V55h.07a5.59 5.59 0 0 1 5.05-3.19 2.11 2.11 0 0 1 .54.06v2a4.76 4.76 0 0 0-3.51.8 5.41 5.41 0 0 0-2.17 4.33v9.4h-2z" style="fill:#e63209"/><circle cx="57" cy="57" r="57" style="fill:#e63209"/><path style="fill:#fff" d="M34.68 62.58h-1.59v7.58h19.25v3.92H28.9V59.9h23.96v-7.1h-1.59v5.51H27.31v17.37h26.63v-7.12H34.68v-5.98z"/><path style="fill:#fff" d="M27.31 54.4h21.28v-1.6H28.9V39.91h23.44v3.93H33.09v6.28h1.59v-4.68h19.26v-7.12H27.31V54.4zM76.64 52.8H63.63v21.28h-4.19V39.91h4.19v10.21h1.59v-11.8h-7.37v37.36h7.37V54.4h11.42v-1.6z"/><path style="fill:#fff" d="M79.32 38.32v19.99H67.9v1.59h13.01V39.91h4.19v34.17h-4.19v-11.5h-1.59v13.1h7.37V38.32h-7.37z"/></g></g></svg>
