<svg xmlns="http://www.w3.org/2000/svg" viewBox="0 0 151.5 151.5"><g data-name="Ebene 2"><g data-name="Ebene 1"><circle cx="75.75" cy="75.75" r="75" style="fill:none;stroke:#e63209;stroke-miterlimit:10;stroke-width:1.5px"/><path style="fill:#e63209" d="M46.38 83.09h-2.1v9.97h25.35v5.17H38.78V79.56h31.53v-9.33h-2.1v7.24H36.68v22.86h35.04v-9.36H46.38v-7.88z"/><path style="fill:#e63209" d="M36.68 72.32h28v-2.09h-25.9V53.27h30.85v5.17H44.28v8.26h2.1v-6.17h25.34v-9.36H36.68v21.15zM101.59 70.23H84.47v28h-5.51V53.27h5.51V66.7h2.09V51.17h-9.69v49.16h9.69V72.32h15.03v-2.09z"/><path style="fill:#e63209" d="M105.12 51.17v26.3H90.09v2.09h17.13V53.27h5.5v44.96h-5.5V83.09h-2.1v17.24h9.7V51.17h-9.7z"/></g></g></svg>