<svg xmlns="http://www.w3.org/2000/svg" viewBox="0 0 61.2 61.2"><g data-name="Ebene 2"><g data-name="Ebene 1"><circle cx="30.6" cy="30.6" r="30" style="fill:none;stroke:#e63209;stroke-miterlimit:10;stroke-width:1.2px"/><path d="M24.38 35.41h-3.46a.49.49 0 0 1-.45-.24.53.53 0 0 1 0-.53l3.67-6.48-2.34-4.07a.56.56 0 0 1 0-.53.55.55 0 0 1 .48-.21h3.45a1.08 1.08 0 0 1 1 .65l2.37 4.14-3.73 6.6a1.05 1.05 0 0 1-.99.67zm16.35-16L33.07 32.9 38 41.83a.55.55 0 0 1 0 .54.51.51 0 0 1-.46.22H34a1.08 1.08 0 0 1-1-.66l-4.92-9c.25-.43 7.7-13.64 7.7-13.64a1 1 0 0 1 .92-.66h3.49a.51.51 0 0 1 .46.22.55.55 0 0 1 .08.52z" style="fill:#e63209"/></g></g></svg>