<?xml version="1.0" standalone="no"?>
<!DOCTYPE svg PUBLIC "-//W3C//DTD SVG 20010904//EN"
 "http://www.w3.org/TR/2001/REC-SVG-20010904/DTD/svg10.dtd">
<svg version="1.0" xmlns="http://www.w3.org/2000/svg"
 width="700.000000pt" height="700.000000pt" viewBox="0 0 700.000000 700.000000"
 preserveAspectRatio="xMidYMid meet">
<metadata>
Created by potrace 1.14, written by Peter Selinger 2001-2017
</metadata>
<g transform="translate(0.000000,700.000000) scale(0.100000,-0.100000)"
fill="#000000" stroke="none">
<path d="M3279 6996 c-2 -2 -40 -6 -84 -10 -95 -8 -137 -12 -230 -27 -38 -6
-83 -13 -100 -15 -16 -3 -37 -7 -45 -9 -8 -2 -26 -6 -40 -9 -220 -38 -563
-157 -825 -287 -203 -100 -305 -160 -465 -273 -737 -522 -1239 -1288 -1421
-2171 -7 -33 -13 -62 -14 -65 -1 -3 -5 -30 -9 -60 -5 -30 -10 -62 -11 -70 -36
-198 -41 -674 -10 -914 2 -17 6 -56 10 -86 34 -291 162 -708 313 -1022 209
-432 514 -828 872 -1132 132 -112 377 -296 395 -296 3 0 35 -19 72 -43 172
-110 466 -247 699 -326 179 -60 447 -124 609 -145 111 -15 142 -18 232 -26 99
-8 547 -6 593 4 14 2 56 7 93 11 37 3 76 8 87 10 10 2 40 7 67 11 26 5 50 9
53 9 3 1 25 5 50 9 83 14 284 66 390 100 1156 369 2046 1318 2335 2489 19 75
37 156 40 179 4 24 8 45 10 48 2 3 6 30 10 60 4 30 8 57 10 60 2 3 6 39 10 80
4 41 9 89 12 105 9 55 11 508 2 597 -13 144 -22 210 -39 308 -6 36 -13 79 -16
95 -3 17 -21 91 -39 166 -205 827 -723 1566 -1435 2050 -410 278 -923 481
-1400 555 -19 3 -46 7 -60 9 -14 3 -54 7 -90 11 -36 3 -74 8 -85 11 -23 6
-540 14 -546 9z m541 -80 c19 -2 61 -7 92 -10 105 -11 292 -46 428 -81 1214
-309 2160 -1247 2479 -2458 33 -127 33 -126 61 -287 39 -232 45 -309 45 -580
0 -198 -5 -299 -20 -418 -37 -289 -104 -552 -220 -857 -41 -110 -170 -368
-247 -495 -58 -96 -228 -343 -247 -360 -3 -3 -38 -43 -77 -90 -378 -451 -907
-816 -1471 -1015 -175 -62 -436 -129 -578 -149 -22 -3 -57 -9 -78 -12 -134
-21 -266 -29 -487 -29 -184 0 -404 10 -420 20 -3 1 -30 6 -60 9 -62 7 -83 11
-190 32 -507 100 -988 317 -1402 632 -113 86 -134 103 -232 192 -461 419 -800
954 -980 1551 -42 136 -63 222 -86 349 -6 30 -12 64 -14 75 -2 11 -7 45 -11
75 -4 30 -9 62 -10 71 -27 142 -27 680 0 841 2 13 6 41 10 63 81 564 301 1101
634 1550 420 567 1002 991 1671 1218 137 47 355 103 470 121 19 3 44 7 55 10
18 3 101 16 150 22 11 1 61 6 110 9 50 4 92 9 94 11 6 6 489 -3 531 -10z"/>
<path d="M1702 4631 c-9 -7 -10 -956 0 -966 5 -5 843 -9 1236 -5 l52 0 0 45
c0 25 -3 46 -7 46 -5 1 -273 2 -598 3 l-590 1 -2 392 -2 391 712 -1 712 -2 1
-117 2 -118 -587 -2 -586 -3 0 -178 c0 -99 2 -183 5 -187 3 -4 19 -9 35 -10
63 -4 60 -12 59 140 -1 136 -1 140 20 141 11 0 266 1 566 0 300 0 554 2 565 4
19 4 20 12 20 215 0 115 -2 211 -5 211 -16 5 -1601 4 -1608 0z"/>
<path d="M3554 4625 c-2 -5 -3 -516 -2 -1135 l3 -1125 223 0 222 -1 0 647 0
647 340 0 c187 0 344 3 348 6 8 5 9 32 3 81 -1 7 -138 10 -393 10 l-393 0 -2
-625 c-1 -344 -2 -635 -2 -647 -1 -23 -3 -23 -126 -23 l-125 0 0 1039 0 1039
125 1 125 2 1 -48 c0 -27 1 -165 2 -308 l2 -260 30 -5 c69 -13 65 -36 65 359
l0 357 -221 0 c-145 0 -223 -4 -225 -11z"/>
<path d="M4858 4620 c-2 -8 -3 -282 -2 -607 l1 -593 -347 0 -347 0 0 -48 -1
-48 392 0 c215 0 393 3 396 7 3 4 5 277 4 608 l0 600 128 0 128 -1 0 -1039 0
-1040 -128 3 -127 3 -1 335 c-1 184 -2 341 -3 348 -1 7 -17 12 -45 12 -26 0
-45 -5 -48 -12 -2 -7 -3 -186 -2 -398 l0 -385 215 -1 c118 -1 219 1 224 3 14
5 14 2262 0 2265 -5 0 -105 2 -222 2 -183 2 -212 0 -215 -14z"/>
<path d="M3160 3752 c-6 -2 -10 -66 -10 -168 l0 -164 -727 -2 -728 -3 0 -525
0 -525 808 0 c444 -1 807 2 808 5 1 3 2 100 3 216 l1 211 -576 0 c-317 0 -581
3 -587 7 -6 4 -9 72 -9 178 l2 173 -50 3 -50 3 0 -231 0 -230 586 0 586 0 -1
-120 0 -120 -712 1 -712 1 -1 428 c0 331 2 429 12 432 6 2 335 3 730 3 l717
-1 0 216 0 217 -40 -1 c-22 0 -44 -2 -50 -4z"/>
</g>
</svg>
